<?xml version="1.0" encoding="UTF-8"?><svg id="Calque_2" xmlns="http://www.w3.org/2000/svg" viewBox="0 0 533 161.5"><defs><style>.cls-1{fill:#ff6745;}</style></defs><g id="Calque_2-2"><path class="cls-1" d="M376.7,31.5h0c-3.6-1-7.8-1.6-11.7-1.6-15.1,0-27.4,8-35,20.7v-18.4h-24.3v126.5h24.3v-71.3c0-22,15.1-36,34.2-36s8.6.8,12.6,2.1v-22h-.1Z"/><path class="cls-1" d="M486.8,58.2c-9.4-18.1-26.1-28.5-48.6-28.5-34.5,0-61.9,29.3-61.9,65.9s27.5,65.9,61.9,65.9,39.2-10.4,48.6-28.5v25.9h24V32.2h-24v26ZM443.1,138.6c-24.3,0-43.4-18.9-43.4-43.1s18.3-43.1,43.4-43.1,43.6,18.2,43.6,43.1-19.3,43.1-43.6,43.1Z"/><path class="cls-1" d="M146.3,58.9h-4.1c-2.4,0-4.4-.8-6.1-2.5-1.7-1.6-2.5-3.6-2.5-5.8v-10.5c0-2.4-.8-4.4-2.5-6s-3.6-2.5-5.8-2.5h-6.7c-2.2,0-4.2.8-5.8,2.5-1.7,1.6-2.5,3.7-2.5,6v13.1c0,2.4.8,4.4,2.5,6h0c1.7,1.6,3.6,2.5,5.8,2.5h12.6v89.1c0,2.2.8,4.1,2.5,5.8,1.6,1.6,3.6,2.5,5.8,2.5h6.7c2.2,0,4.2-.8,5.8-2.5,1.7-1.6,2.5-3.6,2.5-5.8v-83.5c0-2.4-.8-4.4-2.5-6s-3.6-2.5-5.8-2.5l.1.1Z"/><path class="cls-1" d="M139.5,30.7h6.7c2.2,0,4.2-.8,5.8-2.5,1.7-1.6,2.5-3.7,2.5-6v-13.1c0-2.4-.8-4.3-2.5-5.9-1.7-1.6-3.6-2.3-5.8-2.3h-6.7c-2.2,0-4.2.8-5.8,2.3-1.7,1.6-2.5,3.5-2.5,5.9v13.1c0,2.4.8,4.4,2.5,6s3.6,2.5,5.8,2.5Z"/><path class="cls-1" d="M283.3,58.9h-4.3c-2.2,0-4.2-.8-5.8-2.5-1.7-1.6-2.5-3.6-2.5-5.8v-10.5c0-2.4-.8-4.4-2.5-6s-3.6-2.5-5.8-2.5h-63.1c-2.2,0-4.2.8-5.8,2.5-1.7,1.6-2.5,3.7-2.5,6v10.5c0,2.2-.8,4.1-2.5,5.8-1.7,1.6-3.6,2.5-5.8,2.5h-4.3c-2.2,0-4.2.8-5.8,2.5-1.7,1.6-2.5,3.7-2.5,6v56.3c0,2.2.8,4.1,2.5,5.8,1.7,1.6,3.6,2.5,5.8,2.5h4.3c2.2,0,4.2.8,5.8,2.5s2.5,3.7,2.5,6v10.5c0,2.2.8,4.1,2.5,5.8,1.6,1.6,3.6,2.5,5.8,2.5h63.1c2.2,0,4.2-.8,5.8-2.5,1.7-1.6,2.5-3.6,2.5-5.8v-10.5c0-2.4.8-4.4,2.5-6s3.6-2.5,5.8-2.5h4.3c2.2,0,4.2-.8,5.8-2.5,1.7-1.6,2.5-3.6,2.5-5.8v-56.3c0-2.4-.8-4.4-2.5-6s-3.6-2.5-5.8-2.5ZM268.3,129.3h-74.7V61.6h74.7v67.7Z"/><polygon class="cls-1" points="25.4 0 0 0 0 158.3 115.2 158.3 115.2 134.4 25.4 134.4 25.4 0"/><path class="cls-1" d="M525.7,31.9c-4,0-7.3,3.3-7.3,7.2s3.2,7.2,7.3,7.2,7.3-3.3,7.3-7.2-3.3-7.2-7.3-7.2ZM525.7,45.3c-3.4,0-6.1-2.8-6.1-6.1s2.8-6.1,6.1-6.1,6.1,2.7,6.1,6.1-2.8,6.1-6.1,6.1Z"/><path class="cls-1" d="M525.7,36.8c.9,0,1.7.5,1.9,1.2h1.9c-.2-1.6-1.9-2.9-3.8-2.9s-4,1.8-4,4.1,1.7,4.1,4,4.1,3.5-1.2,3.8-3h-1.9c-.2.8-1,1.3-1.9,1.3-1.3,0-2.3-1-2.3-2.4s1-2.4,2.3-2.4Z"/></g></svg>