<?xml version="1.0" encoding="UTF-8"?><svg id="Calque_2" xmlns="http://www.w3.org/2000/svg" viewBox="0 0 533 250.2"><defs><style>.cls-1{fill:#fff;}</style></defs><g id="Calque_2-2"><path class="cls-1" d="M376.7,31.5h0c-3.6-1-7.8-1.6-11.7-1.6-15.1,0-27.4,8-35,20.7v-18.4h-24.3v126.5h24.3v-71.3c0-22,15.1-36,34.2-36s8.6.8,12.6,2.1v-22h-.1Z"/><path class="cls-1" d="M486.8,58.2c-9.4-18.1-26.1-28.5-48.6-28.5-34.5,0-61.9,29.3-61.9,65.9s27.5,65.9,61.9,65.9,39.2-10.4,48.6-28.5v25.9h24V32.2h-24v26ZM443.1,138.6c-24.3,0-43.4-18.9-43.4-43.1s18.3-43.1,43.4-43.1,43.6,18.2,43.6,43.1-19.3,43.1-43.6,43.1Z"/><path class="cls-1" d="M146.3,58.9h-4.1c-2.4,0-4.4-.8-6.1-2.5-1.7-1.6-2.5-3.6-2.5-5.8v-10.5c0-2.4-.8-4.4-2.5-6s-3.6-2.5-5.8-2.5h-6.7c-2.2,0-4.2.8-5.8,2.5-1.7,1.6-2.5,3.7-2.5,6v13.1c0,2.4.8,4.4,2.5,6h0c1.7,1.6,3.6,2.5,5.8,2.5h12.6v89.1c0,2.2.8,4.1,2.5,5.8,1.6,1.6,3.6,2.5,5.8,2.5h6.7c2.2,0,4.2-.8,5.8-2.5,1.7-1.6,2.5-3.6,2.5-5.8v-83.5c0-2.4-.8-4.4-2.5-6s-3.6-2.5-5.8-2.5l.1.1Z"/><path class="cls-1" d="M139.5,30.7h6.7c2.2,0,4.2-.8,5.8-2.5,1.7-1.6,2.5-3.7,2.5-6v-13.1c0-2.4-.8-4.3-2.5-5.9-1.7-1.6-3.6-2.3-5.8-2.3h-6.7c-2.2,0-4.2.8-5.8,2.3-1.7,1.6-2.5,3.5-2.5,5.9v13.1c0,2.4.8,4.4,2.5,6s3.6,2.5,5.8,2.5Z"/><path class="cls-1" d="M283.3,58.9h-4.3c-2.2,0-4.2-.8-5.8-2.5-1.7-1.6-2.5-3.6-2.5-5.8v-10.5c0-2.4-.8-4.4-2.5-6s-3.6-2.5-5.8-2.5h-63.1c-2.2,0-4.2.8-5.8,2.5-1.7,1.6-2.5,3.7-2.5,6v10.5c0,2.2-.8,4.1-2.5,5.8-1.7,1.6-3.6,2.5-5.8,2.5h-4.3c-2.2,0-4.2.8-5.8,2.5-1.7,1.6-2.5,3.7-2.5,6v56.3c0,2.2.8,4.1,2.5,5.8,1.7,1.6,3.6,2.5,5.8,2.5h4.3c2.2,0,4.2.8,5.8,2.5s2.5,3.7,2.5,6v10.5c0,2.2.8,4.1,2.5,5.8,1.6,1.6,3.6,2.5,5.8,2.5h63.1c2.2,0,4.2-.8,5.8-2.5,1.7-1.6,2.5-3.6,2.5-5.8v-10.5c0-2.4.8-4.4,2.5-6s3.6-2.5,5.8-2.5h4.3c2.2,0,4.2-.8,5.8-2.5,1.7-1.6,2.5-3.6,2.5-5.8v-56.3c0-2.4-.8-4.4-2.5-6s-3.6-2.5-5.8-2.5ZM268.3,129.3h-74.7V61.6h74.7v67.7Z"/><polygon class="cls-1" points="25.4 0 0 0 0 158.3 115.2 158.3 115.2 134.4 25.4 134.4 25.4 0"/><path class="cls-1" d="M525.7,31.9c-4,0-7.3,3.3-7.3,7.2s3.2,7.2,7.3,7.2,7.3-3.3,7.3-7.2-3.3-7.2-7.3-7.2ZM525.7,45.3c-3.4,0-6.1-2.8-6.1-6.1s2.8-6.1,6.1-6.1,6.1,2.7,6.1,6.1-2.8,6.1-6.1,6.1Z"/><path class="cls-1" d="M525.7,36.8c.9,0,1.7.5,1.9,1.2h1.9c-.2-1.6-1.9-2.9-3.8-2.9s-4,1.8-4,4.1,1.7,4.1,4,4.1,3.5-1.2,3.8-3h-1.9c-.2.8-1,1.3-1.9,1.3-1.3,0-2.3-1-2.3-2.4s1-2.4,2.3-2.4Z"/><path class="cls-1" d="M6.6,236.6c0-7.9,5.3-13.4,13.1-13.4s13.2,5.9,13,14.6H9.5c.5,5.8,4.4,9.5,10.1,9.5s7.5-1.9,9.1-5.2h3.2c-2,4.9-6.6,8-12.4,8s-13-5.5-13-13.4l.1-.1ZM29.9,235.2c-.7-5.8-4.6-9.3-10.2-9.3s-9.7,3.7-10.2,9.3h20.4Z"/><path class="cls-1" d="M46.4,236.3l-9.4-12.5h3.4l5.2,6.8,2.7,3.7,2.7-3.7,5.2-6.8h3.5l-9.4,12.5,10.1,13.1h-3.5l-5.6-7.3-2.9-3.8-2.9,3.8-5.6,7.3h-3.5l10.1-13.1h-.1Z"/><path class="cls-1" d="M114.4,229.8c-1.5-.5-2.6-1.4-3-3.1-.2-1.1-.1-2.3.1-3.4,0-.4-.2-.7-.7-.8-3.3-.1-6.4-.3-8.5-.6-1.8-.2-3.6-.6-5.4-1.2-1.9-.6-3.7-1.5-5.4-2.5-2.5-1.5-4.6-3.2-6.1-5.3-1.2-1.4-2.1-3.1-2.6-4.9-.6-2-.9-4.1-.7-6.2.1-1.8.5-3.5,1.1-5.2l1.8-4.6-.3,4.4c-.3,2.8.2,5.5,1.1,8.2.8,2.4,2.3,4.4,4.4,6.1,1.7,1.3,3.6,2.2,5.7,2.7l1.9.4h.3l.4-.2c-2.2-1.3-4.3-2.8-6.3-4.4-1.9-1.7-3.3-3.8-4.1-6.1-.5-1.5-.6-3.1-.5-4.7,0-1.4.4-2.8.8-4.2.5-1.5,1.2-3,2-4.3,1-1.6,2.1-3,3.4-4.2,1.4-1.3,3-2.5,4.7-3.4-3.3,3.8-5.5,7.7-6.3,11.8-.5,2.8,0,5.6,1.6,7.9,1.2,1.7,2.8,3.2,4.8,4.5,1.3.9,2.8,1.6,4.3,2.1-2.7-2.4-5-5.1-6.5-8.1-1-2.6-1.2-5-.4-7.2.6-2.1,1.6-4,3.1-5.5,1.3-1.4,2.8-2.7,4.4-3.7l2.7-1.7c-2.1,3-3.7,5.9-4.5,8.5-.6,2.4-.3,4.7.7,7,.8,1.9,2.3,3.4,4.4,4.7,2.1,1.2,7.3,3.3,7.3,3.3,2.9,1.3,5.6,3,8,5.1,3.5,3,5.3,6.2,4.8,9.9-.4,2.5-2.1,4.8-4.7,6.9,0,0-3.5,3-7.9,1.9"/><path class="cls-1" d="M118.9,233.7c-.2,0,3.1,8.3,3.1,8.3l2.2,6.7c.3.9.8,1.3,1.6,1.2h9.4c-.8-1.5-2-2.7-4.2-3.6-1-.1-1.5-1.4-1.5-2.3v-2.2s.2-18.8,0-19.7c-.1-.5-2.8,10.3-10.6,11.5"/><path class="cls-1" d="M116.4,185.7v6.8s0,4.7-.6,6.7c-.4,1.3-.9,2.7-1.6,3.9l3.4,1.9,3.7,2.1,3.3,2.1s1.2.8,2.4,1.9c.8.7,1.6,1.4,2.2,2.2.5.7,1,1.4,1.5,2.1.4.7.6,1.5.8,2.3l.7,3.7c0,.3.2.6.3,1,.2.3.3.6.5.9.3.3.5.5.8.7s.7.3,1,.2c0,0,.2,0,.3-.5v-.8l-.4-.8v-2.6c-.1,0-.2-1.9-.2-1.9v-1.9l.1-1.8c0-1.1-.1-2.2-.4-3.3,0-.4-.2-.8-.4-1.3-.3-.6-1-1-1.7-.8-.2,0-.4.1-.6.1h-.9c-.8-.3-1.4-1-1.6-1.9-.4-1.8,0-3.5,1.9-5.1l.6-.6c1.1-1.3.4-10.4.4-10.4v-5h-3.7v8.2h-2.1v-8.2h-3.6v8.2h-2.2v-8.2h-4.1l.2.1Z"/><path class="cls-1" d="M131.7,207.1c1.9,0,3.4-.4,3.6-.9.2-.6-1.2-2.9-2.8-3.4-.4-.1-1.4,1.3-1.5,2-.4,2.5.3,2.3.8,2.3"/><path class="cls-1" d="M82.4,249.9h27.3c-1.5-2.2-3.1-3.5-5.3-3.4,0,0-9.3-.1-8.5-.2,8.4-1.2,9.8-6.8,10.4-5.7.2,2.6-1.6,4.2-1.4,4.2,14.4,0,11.9-1.6,11.9-1.6,0,0-.9-9.6-2.6-10.3-2.2-.4-5.6-3-6.1-5.4v-1.3c-3.2-.3-6.4-.9-9.6-1.6-2.9,0-5.5,2-7.7,4.1-3.9,3.9-6.5,8.9-7.7,14.3-.8,3.9-.8,6.9-.8,6.9"/><path class="cls-1" d="M164.8,215.1h-10.9v34.5h10.9c10.9,0,17.9-6.8,17.9-17.2s-7-17.2-17.9-17.2v-.1ZM164.8,246.5h-7.7v-28.4h7.6c9.1,0,14.8,5.4,14.8,14.2s-5.6,14.2-14.7,14.2h0Z"/><path class="cls-1" d="M200.7,223.4c-5.4,0-9.5,3-10.8,7.7h0c0,.1,3.1.1,3.1.1h0c1-3.1,4-5,7.7-5s7.7,2.7,7.7,6.9v1.7h-11.1c-5.3,0-8.7,2.9-8.7,7.4s3.7,7.6,9.7,7.6,8.1-1.6,10.4-4.6l.3,4.2h2.5v-16.6c0-5.7-4.4-9.6-10.8-9.6v.2ZM198.4,247.2c-4.1,0-6.7-1.9-6.7-4.9s2.3-4.7,5.8-4.7h11v1c0,5-4.2,8.7-10.1,8.7v-.1Z"/><path class="cls-1" d="M225.1,240.6v-13.8h8.8v-2.8h-8.8v-6.2h-2.4l-.3,4c-.2,1.8-.7,2.3-2.5,2.3h-3.3v2.8h5.5v13.9c0,5.8,2.9,8.9,8.4,8.9h3.8v-2.9h-3.7c-3.8,0-5.4-1.9-5.4-6l-.1-.2Z"/><path class="cls-1" d="M251.1,223.4c-5.4,0-9.5,3-10.8,7.7h0c0,.1,3.1.1,3.1.1h0c1-3.1,4-5,7.7-5s7.7,2.7,7.7,6.9v1.7h-11.1c-5.3,0-8.7,2.9-8.7,7.4s3.7,7.6,9.7,7.6,8.1-1.6,10.4-4.6l.3,4.2h2.5v-16.6c0-5.7-4.4-9.6-10.8-9.6v.2ZM248.8,247.2c-4.1,0-6.7-1.9-6.7-4.9s2.3-4.7,5.8-4.7h11v1c0,5-4.2,8.7-10.1,8.7v-.1Z"/><path class="cls-1" d="M283.1,230.7c-7-1.6-9.7-3.5-9.7-7.1s3.3-6.2,8.7-6.2,9.1,2.7,9.4,7.5h3.1c-.1-3.4-1.3-6.1-3.5-7.9-2.2-1.8-5.3-2.8-9-2.8-7.2,0-11.9,3.6-11.9,9.2s3.5,8,12.1,10c6.8,1.5,9.6,3.6,9.6,7.1s-3.5,6.4-9,6.4-9.8-3-10.1-7.9h-3.1c.2,6.8,5.3,11,13.2,11s6.8-.9,8.9-2.5c2.2-1.7,3.3-4.1,3.3-6.9,0-5.1-3.6-8.1-12.1-10l.1.1Z"/><path class="cls-1" d="M323.9,240.6c-1.4,4.2-5,6.7-9.6,6.7s-10-4.3-10-10.5,4.1-10.4,10-10.4,7.8,2.3,9.5,6.3h3.1c-1.5-5.7-6.4-9.3-12.5-9.3s-13,5.5-13,13.4,5.4,13.4,13,13.4,11-3.6,12.8-9.6h0c0-.1-3.2-.1-3.2-.1h0l-.1.1Z"/><path class="cls-1" d="M336.1,214.3c-1.6,0-2.7,1.1-2.7,2.6s1.1,2.7,2.7,2.7,2.7-1.1,2.7-2.7-1.1-2.6-2.7-2.6Z"/><rect class="cls-1" x="334.6" y="224.1" width="3" height="25.5"/><path class="cls-1" d="M358.4,223.4c-7.7,0-13.1,5.5-13.1,13.4s1.2,7.3,3.6,9.7,5.6,3.7,9.4,3.7c5.7,0,10.3-3,12.3-7.9h0c0-.1-3.4-.2-3.4-.2h0c-1.7,3.3-4.9,5.2-9,5.2s-9.4-3.6-9.9-9.3h23c.1-4.5-1.2-8.4-3.8-11-2.3-2.4-5.5-3.6-9.2-3.6h.1ZM358.4,226.3c5.5,0,9.3,3.5,10,9.1h-20c.5-5.5,4.4-9.1,10-9.1Z"/><path class="cls-1" d="M391.4,223.4c-4.1,0-7.5,1.9-9.5,5.3l-.2-4.7h-2.6v25.5h3v-13.2c0-6,3.6-10,9-10s8.1,3.6,8.1,9.4v13.9h3v-14.1c0-7.4-4.1-12.1-10.8-12.1h0Z"/><path class="cls-1" d="M415.7,240.6v-13.8h8.8v-2.8h-8.8v-6.2h-2.4l-.3,4c-.2,1.8-.7,2.3-2.5,2.3h-3.3v2.8h5.5v13.9c0,5.8,2.9,8.9,8.4,8.9h3.8v-2.9h-3.7c-3.8,0-5.4-1.9-5.4-6l-.1-.2Z"/><path class="cls-1" d="M441.9,223.4c-7.7,0-13.1,5.5-13.1,13.4s1.2,7.3,3.6,9.7,5.6,3.7,9.4,3.7c5.7,0,10.3-3,12.3-7.9h0c0-.1-3.4-.2-3.4-.2h0c-1.7,3.3-4.9,5.2-9,5.2s-9.4-3.6-9.9-9.3h23c.1-4.5-1.2-8.4-3.8-11-2.3-2.4-5.5-3.6-9.2-3.6h.1ZM441.9,226.3c5.5,0,9.3,3.5,10,9.1h-20c.5-5.5,4.4-9.1,10-9.1Z"/><path class="cls-1" d="M471.7,235.4c-5.6-1.1-7.7-2.4-7.7-4.9s2.6-4.4,6.7-4.4,6.9,1.8,7.2,5.1h3c-.4-5-4.2-7.9-10.2-7.9s-9.7,2.7-9.7,7.1,3.1,6.3,9.7,7.4c5.3.9,7.7,2.5,7.7,5.1s-2.6,4.4-7.1,4.4-7.5-2-7.8-5.6h-3c.2,5.3,4.3,8.5,10.8,8.5s10.1-2.8,10.1-7.2-3.3-6.5-9.7-7.7v.1Z"/><path class="cls-1" d="M499.2,246.6c-3.8,0-5.4-1.9-5.4-6v-13.8h8.8v-2.8h-8.8v-6.2h-2.4l-.3,4c-.2,1.8-.7,2.3-2.5,2.3h-3.3v2.8h5.5v13.9c0,5.8,2.9,8.9,8.4,8.9h3.8v-2.9h-3.7l-.1-.2Z"/></g></svg>